<svg xmlns="http://www.w3.org/2000/svg" xmlns:xlink="http://www.w3.org/1999/xlink" width="128" height="53" viewBox="0 0 128 53"><defs><style>.a{fill:url(#a);}.b,.c,.d,.e{fill:#fff;}.b{font-size:23px;}.b,.c{font-family:Montserrat-ExtraBold, Montserrat;font-weight:800;}.c{font-size:24px;}.e{font-size:9px;font-family:Roboto-Bold, Roboto;font-weight:700;}.f{filter:url(#b);}</style><linearGradient id="a" x2="1" y2="1" gradientUnits="objectBoundingBox"><stop offset="0" stop-color="#23b0ff"/><stop offset="1" stop-color="#9db31c"/></linearGradient><filter id="b" x="0" y="0" width="128" height="53" filterUnits="userSpaceOnUse"><feOffset dy="3" input="SourceAlpha"/><feGaussianBlur stdDeviation="3" result="c"/><feFlood flood-opacity="0.161"/><feComposite operator="in" in2="c"/><feComposite in="SourceGraphic"/></filter></defs><g transform="translate(9 6)"><g class="f" transform="matrix(1, 0, 0, 1, -9, -6)"><rect class="a" width="110" height="35" rx="4" transform="translate(9 6)"/></g><g transform="translate(1.544 2.124)"><g transform="translate(5.456 0.876)"><text class="b" transform="translate(0 22)"><tspan x="0" y="0">R</tspan></text><text class="c" transform="translate(33.28 23)"><tspan x="0" y="0">B</tspan></text><path class="d" d="M1.19,10.064A3.222,3.222,0,0,0,0,5.669L1.66,2.795a3.18,3.18,0,0,0,1.614.437A3.222,3.222,0,0,0,6.484,0H9.8a3.18,3.18,0,0,0,.428,1.62,3.222,3.222,0,0,0,4.4,1.167l1.659,2.874a3.181,3.181,0,0,0-1.186,1.179,3.222,3.222,0,0,0,1.183,4.391l-1.66,2.874a3.18,3.18,0,0,0-1.606-.433,3.222,3.222,0,0,0-3.211,3.215H6.493a3.181,3.181,0,0,0-.428-1.6,3.222,3.222,0,0,0-4.394-1.171L.012,11.239A3.181,3.181,0,0,0,1.19,10.064Zm6.956,1.8A3.419,3.419,0,1,0,4.727,8.444,3.419,3.419,0,0,0,8.146,11.863Z" transform="translate(18.468 5.106) rotate(9)"/><path class="d" d="M1.19,10.064A3.222,3.222,0,0,0,0,5.669L1.66,2.795a3.18,3.18,0,0,0,1.614.437A3.222,3.222,0,0,0,6.484,0H9.8a3.18,3.18,0,0,0,.428,1.62,3.222,3.222,0,0,0,4.4,1.167l1.659,2.874a3.181,3.181,0,0,0-1.186,1.179,3.222,3.222,0,0,0,1.183,4.391l-1.66,2.874a3.18,3.18,0,0,0-1.606-.433,3.222,3.222,0,0,0-3.211,3.215H6.493a3.181,3.181,0,0,0-.428-1.6,3.222,3.222,0,0,0-4.394-1.171L.012,11.239A3.181,3.181,0,0,0,1.19,10.064Zm6.956,1.8A3.419,3.419,0,1,0,4.727,8.444,3.419,3.419,0,0,0,8.146,11.863Z" transform="matrix(0.695, 0.719, -0.719, 0.695, 59.937, 2.995)"/></g><text class="e" transform="translate(71.265 26.095)"><tspan x="0" y="0">classes</tspan></text></g></g></svg>